# xmcd
#
# Track frame offsets:
# 150
# 19167
# 32580
# 55570
# 75602
# 99257
# 122397
# 137685
# 164197
# 181045
#
# Disc length: 2715 seconds
#
#
# Revision: 0
# Processed by: cddbd v1.4PL0 Copyright (c) Steve Scherf et al.
# Submitted via: FreeRIP 2.30 
#
DISCID=700a990a
DTITLE=Fallout - The Fine Art of Dining Alone
DYEAR=1998
DGENRE=Blues
TTITLE0=Send Me an Angel
TTITLE1=Feel This
TTITLE2=The Fine Art of Dining Alone
TTITLE3=Lay Me Down
TTITLE4=Can't Get the Blues
TTITLE5=No Excuse
TTITLE6=Fear
TTITLE7=Breathe
TTITLE8=Wicked Sindy
TTITLE9=Rock and Roll Nights
EXTD=
EXTT0=
EXTT1=
EXTT2=
EXTT3=
EXTT4=
EXTT5=
EXTT6=
EXTT7=
EXTT8=
EXTT9=
PLAYORDER=
